REM Ripping Tool: trurip

FILE "Fushigi no Umi no Nadia - The Secret of Blue Water (1993)(Hudson)(JP).img" BINARY
  TRACK 01 AUDIO
    INDEX 01 00:00:00
  TRACK 02 MODE1/2352
    INDEX 00 00:48:52
    INDEX 01 00:51:51
  TRACK 03 AUDIO
    INDEX 00 22:51:71
    INDEX 01 22:53:71
  TRACK 04 AUDIO
    INDEX 01 27:13:06
  TRACK 05 AUDIO
    INDEX 01 27:19:16
  TRACK 06 AUDIO
    INDEX 01 27:43:47
  TRACK 07 AUDIO
    INDEX 01 29:08:25
  TRACK 08 AUDIO
    INDEX 01 29:19:48
  TRACK 09 MODE1/2352
    INDEX 00 29:29:12
    INDEX 01 29:32:11

REM DISC HASHES
REM CRC32 : f1f617be
REM MD5   : 87c5f472183dab3ba520488c3af0280c
REM SHA1  : 083758c931293810e4c07444a69551054d500233

REM Gap Append Method: Prev [crc32]
REM Trk 01: a3f647af
REM Trk 02: 3d9ccf94
REM Trk 03: d7d504b6
REM Trk 04: f24300bd
REM Trk 05: 0f7018ee
REM Trk 06: 03259747
REM Trk 07: 9850470c
REM Trk 08: 4adce010
REM Trk 09: 520e2d65

REM Gap Append Method: Prev [md5]
REM Trk 01: 321176e7df011ed3e39d6516abffc588
REM Trk 02: a79817da9883ba7f5641a220d6fca702
REM Trk 03: 69160b6255dc725d8d400beae66591ea
REM Trk 04: 39565daad8c52fe1638598eed9d186d7
REM Trk 05: 4255e4986ee04bc51138b88d9c16c6c3
REM Trk 06: 84770f373438055fb51f6d77af7fe903
REM Trk 07: 7a1268772d4313353b5fbc83cea4ab20
REM Trk 08: fdcec919f7dd3b3d1122aa9c2e4d4d37
REM Trk 09: 1537f0f3fb7945b17724f6a773594b22

REM Gap Append Method: Prev [sha1]
REM Trk 01: ffe963056faa53d9143e5413b333e836b9ecc48f
REM Trk 02: 1504ef19e9ad91b9c162f5eff946ef9eb7da936b
REM Trk 03: a73a11dc3aac9a15cc3f2a5e41cdbcdd3be6e7a8
REM Trk 04: e1edf02979f4c3a48989b47337d1edca1f456cc7
REM Trk 05: 34cce9626e100991f10cddd5c738132ac86b0d2c
REM Trk 06: a5e5f3df4bb16edfb700a37ad05dbe0e2f2e9706
REM Trk 07: 97ff3a6654426abbd35881c93b6583888b0198f1
REM Trk 08: 14bcaddf8528014db7dd338e39243b0eec942e34
REM Trk 09: f566f4efe324e095a6cb04d68c02090de6916c8f

REM Gap Append Method: None [crc32]
REM Trk 01: 5b8fb0f5
REM Trk 02: 81bc907b
REM Trk 03: d7d504b6
REM Trk 04: f24300bd
REM Trk 05: 0f7018ee
REM Trk 06: 03259747
REM Trk 07: 9850470c
REM Trk 08: 3256b02c
REM Trk 09: 520e2d65
REM Gap 02: e8a353f2
REM Gap 03: 7abe247f
REM Gap 09: 9f66b937

REM Gap Append Method: None [md5]
REM Trk 01: dde6388d76c24b3051528e8c281f431a
REM Trk 02: afa4c17554834f9382b53cbeb7762d2c
REM Trk 03: 69160b6255dc725d8d400beae66591ea
REM Trk 04: 39565daad8c52fe1638598eed9d186d7
REM Trk 05: 4255e4986ee04bc51138b88d9c16c6c3
REM Trk 06: 84770f373438055fb51f6d77af7fe903
REM Trk 07: 7a1268772d4313353b5fbc83cea4ab20
REM Trk 08: 33b78c5d7e2d6368bb68aebfdf131178
REM Trk 09: 1537f0f3fb7945b17724f6a773594b22
REM Gap 02: dfdae36d74e9f973cec81dd0895dc36e
REM Gap 03: 9df204fbc98bb8965081cb30a89715fc
REM Gap 09: 9f9c7d782739cd69484063cb51f4f941

REM Gap Append Method: None [sha1]
REM Trk 01: 6474db6d797320a4532e0f0cd872e1aa6b0b683f
REM Trk 02: acc54d7f992bd842196a81ff1a4971fc26afd12e
REM Trk 03: a73a11dc3aac9a15cc3f2a5e41cdbcdd3be6e7a8
REM Trk 04: e1edf02979f4c3a48989b47337d1edca1f456cc7
REM Trk 05: 34cce9626e100991f10cddd5c738132ac86b0d2c
REM Trk 06: a5e5f3df4bb16edfb700a37ad05dbe0e2f2e9706
REM Trk 07: 97ff3a6654426abbd35881c93b6583888b0198f1
REM Trk 08: 3c001fcc48632ffeb9066b15840e8ebc1161e31b
REM Trk 09: f566f4efe324e095a6cb04d68c02090de6916c8f
REM Gap 02: 0cdf761d486d8acae0dcfc965ecb47306f36fe85
REM Gap 03: cbe29e0bd725ef1194f8c47619dd42078e841de2
REM Gap 09: 9b54c093b3eea09318da15c73ffd02327e9fc646

REM Gap Append Method: Next [crc32]
REM Trk 01: 5b8fb0f5
REM Trk 02: 44c16808
REM Trk 03: f9a87907
REM Trk 04: f24300bd
REM Trk 05: 0f7018ee
REM Trk 06: 03259747
REM Trk 07: 9850470c
REM Trk 08: 3256b02c
REM Trk 09: f276659d

REM Gap Append Method: Next [md5]
REM Trk 01: dde6388d76c24b3051528e8c281f431a
REM Trk 02: f182ef9c34a4fb2df651189e20e087bf
REM Trk 03: a75d1fc8d61be3c8f045dc3659fbe6aa
REM Trk 04: 39565daad8c52fe1638598eed9d186d7
REM Trk 05: 4255e4986ee04bc51138b88d9c16c6c3
REM Trk 06: 84770f373438055fb51f6d77af7fe903
REM Trk 07: 7a1268772d4313353b5fbc83cea4ab20
REM Trk 08: 33b78c5d7e2d6368bb68aebfdf131178
REM Trk 09: e580c9ad1b3e9428d238307a108f9b6a

REM Gap Append Method: Next [sha1]
REM Trk 01: 6474db6d797320a4532e0f0cd872e1aa6b0b683f
REM Trk 02: 8f36c46ac3efc0b46dc6f284a8032341f73784cc
REM Trk 03: 557a9dc2ad885cf46005fe25dad55055920b3cfd
REM Trk 04: e1edf02979f4c3a48989b47337d1edca1f456cc7
REM Trk 05: 34cce9626e100991f10cddd5c738132ac86b0d2c
REM Trk 06: a5e5f3df4bb16edfb700a37ad05dbe0e2f2e9706
REM Trk 07: 97ff3a6654426abbd35881c93b6583888b0198f1
REM Trk 08: 3c001fcc48632ffeb9066b15840e8ebc1161e31b
REM Trk 09: e426ed1839ea300eb3bf915ffe861991aedd4fab

